<?xml version="1.0" encoding="UTF-8" standalone="no"?>
<!DOCTYPE svg PUBLIC "-//W3C//DTD SVG 1.1//EN" "http://www.w3.org/Graphics/SVG/1.1/DTD/svg11.dtd">
<svg xmlns="http://www.w3.org/2000/svg" version="1.1" viewBox="0.00 0.00 600.00 600.00">
<g stroke-width="2.00" fill="none" stroke-linecap="butt">
<path stroke="#808080" vector-effect="non-scaling-stroke" d="
  M 381.37 352.00
  Q 370.88 412.41 361.80 473.26
  C 357.20 504.04 362.32 545.63 399.80 552.94
  C 411.05 555.13 425.89 554.32 437.77 551.59
  C 452.12 548.28 467.76 543.41 480.51 535.47
  Q 514.99 513.99 549.55 492.63
  C 553.10 490.44 553.31 486.60 554.53 483.04
  Q 566.90 447.15 578.68 411.07
  C 579.07 409.87 580.32 408.38 579.90 406.62
  Q 579.77 406.07 579.24 406.27
  L 466.98 449.74
  A 0.36 0.36 0.0 0 1 466.49 449.35
  Q 486.91 299.96 507.49 150.50
  C 510.09 131.56 536.67 143.91 545.53 149.36
  A 2.22 2.21 -59.6 0 0 548.62 148.55
  L 591.62 71.84
  A 0.89 0.89 0.0 0 0 591.20 70.59
  C 549.31 52.53 494.88 40.59 455.99 74.12
  Q 449.99 79.29 442.43 88.77
  Q 427.10 107.99 413.71 130.95
  C 383.61 182.59 358.54 229.62 332.42 279.90
  Q 330.35 283.88 329.92 279.42
  Q 322.57 203.48 314.73 125.23
  Q 310.84 86.49 306.64 49.45
  Q 306.36 46.94 304.52 48.68
  Q 280.20 71.70 256.64 93.88
  Q 255.31 95.14 253.25 95.10
  C 228.84 94.60 204.15 95.70 182.20 108.97
  C 126.97 142.37 82.58 216.05 93.49 281.81
  Q 95.13 291.71 95.99 297.79
  C 99.80 324.74 112.76 351.58 128.27 373.55
  Q 128.74 374.21 129.26 373.60
  Q 153.87 344.47 178.10 315.11
  Q 179.50 313.42 181.22 312.00
  Q 181.72 311.58 181.67 312.23
  Q 181.50 314.51 180.96 316.74
  C 173.49 347.45 165.76 380.64 149.69 408.17
  A 1.32 1.32 0.0 0 1 148.71 408.82
  Q 121.84 412.14 95.25 406.74
  Q 94.12 406.51 93.52 407.50
  L 9.88 545.16
  A 0.47 0.47 0.0 0 0 10.19 545.86
  Q 66.54 557.28 123.69 552.00
  Q 130.20 551.40 135.73 549.61
  C 162.50 540.97 185.25 525.63 201.28 502.29
  C 210.76 488.47 219.37 474.03 225.31 458.12
  Q 240.62 417.15 250.20 374.32
  A 0.36 0.36 0.0 0 1 250.84 374.19
  Q 251.06 374.49 251.09 375.01
  C 254.48 425.27 257.85 475.56 260.87 525.84
  Q 260.99 527.95 262.47 526.44
  Q 295.41 492.77 327.97 459.36
  C 331.81 455.42 333.93 450.29 336.24 445.40
  Q 354.78 406.22 373.49 367.12
  C 375.41 363.12 378.16 356.84 380.92 351.85
  A 0.24 0.24 0.0 0 1 381.37 352.00"
/>
<path stroke="#808080" vector-effect="non-scaling-stroke" d="
  M 250.44 355.46
  C 252.67 354.06 254.16 355.41 254.33 357.75
  Q 258.80 420.77 262.67 483.84
  C 263.14 491.53 263.69 505.12 264.53 515.49
  Q 264.74 518.02 266.49 516.18
  Q 295.71 485.54 324.77 456.34
  C 326.33 454.78 327.63 452.71 328.47 450.95
  Q 356.20 392.94 383.92 334.93
  Q 384.46 333.81 385.76 332.66
  Q 386.18 332.29 386.62 332.64
  L 388.75 334.35
  Q 389.20 334.71 389.07 335.26
  Q 387.26 343.03 386.76 346.00
  Q 379.16 391.09 366.33 472.06
  C 361.16 504.75 367.11 548.39 409.76 549.69
  C 429.33 550.28 447.34 545.34 465.61 538.21
  Q 471.18 536.03 477.01 532.42
  Q 511.25 511.23 545.39 489.86
  Q 546.60 489.10 547.91 488.11
  Q 548.33 487.80 548.49 487.30
  L 573.03 414.33
  A 0.54 0.54 0.0 0 0 572.32 413.65
  Q 519.33 434.33 466.98 454.46
  Q 464.23 455.52 461.23 455.93
  Q 460.64 456.01 460.78 455.43
  C 461.30 453.29 462.02 451.03 462.28 448.98
  Q 467.08 410.89 472.56 372.90
  C 479.73 323.12 485.96 273.19 493.09 223.40
  C 496.99 196.16 500.38 167.35 503.77 147.01
  C 505.76 135.09 518.25 135.37 527.20 136.93
  C 533.22 137.98 539.37 141.24 545.17 144.11
  Q 545.74 144.39 546.05 143.83
  L 585.04 74.52
  A 1.38 1.37 26.5 0 0 584.39 72.59
  C 545.61 55.87 494.78 46.89 459.38 77.00
  Q 453.81 81.75 445.83 91.68
  C 427.78 114.13 412.26 141.25 396.17 170.29
  Q 361.08 233.61 328.13 298.09
  Q 327.75 298.83 327.57 298.02
  C 326.61 293.76 326.53 288.60 326.18 285.11
  C 323.37 256.75 320.22 228.42 317.57 200.04
  C 315.03 172.85 311.92 145.72 309.33 118.54
  C 307.39 98.18 306.02 77.36 302.78 57.17
  A 0.54 0.53 60.3 0 0 301.84 56.91
  Q 299.22 60.09 296.05 63.06
  Q 277.05 80.91 258.13 98.87
  Q 257.74 99.24 257.20 99.27
  Q 254.12 99.41 247.00 99.29
  Q 234.12 99.08 217.63 101.31
  C 211.01 102.21 201.88 103.93 196.80 106.30
  C 151.49 127.47 118.09 172.59 102.82 219.12
  C 96.44 238.55 94.53 258.40 97.23 278.75
  C 97.67 282.10 98.95 285.31 99.29 288.48
  C 102.38 317.27 112.90 342.60 128.79 366.46
  A 0.42 0.42 0.0 0 0 129.47 366.49
  Q 148.79 343.08 168.50 319.82
  C 173.05 314.45 181.61 303.65 188.70 296.15
  Q 189.78 295.01 189.47 296.55
  C 182.94 328.42 175.61 358.99 163.97 389.45
  Q 159.93 400.00 152.37 412.42
  Q 152.11 412.86 151.60 412.94
  Q 147.91 413.50 144.18 413.62
  C 128.44 414.12 112.18 414.47 96.61 411.70
  Q 96.22 411.63 96.01 411.97
  L 17.23 541.74
  A 0.95 0.95 0.0 0 0 17.88 543.17
  Q 71.12 552.32 124.75 547.56
  C 131.10 547.00 135.02 545.28 142.67 542.40
  C 163.84 534.41 181.68 521.26 195.07 503.05
  C 205.79 488.49 215.21 472.76 221.53 455.60
  Q 239.35 407.18 249.84 356.33
  A 1.35 1.32 -11.0 0 1 250.44 355.46"
/>
<path stroke="#808080" vector-effect="non-scaling-stroke" d="
  M 412.63 253.11
  Q 412.23 257.95 410.74 268.25
  Q 396.27 368.09 381.72 467.92
  C 378.82 487.76 378.04 523.14 398.94 533.90
  C 433.79 551.86 506.11 500.90 534.91 481.22
  C 535.74 480.65 536.67 479.75 537.00 478.96
  C 542.49 465.81 546.86 452.29 552.07 439.04
  A 0.83 0.83 0.0 0 0 551.09 437.93
  Q 550.64 438.04 549.59 438.47
  Q 521.15 449.87 492.62 461.01
  C 482.78 464.86 457.04 474.83 448.68 465.60
  C 445.26 461.82 445.17 454.03 446.30 449.31
  Q 448.52 440.02 449.06 435.70
  C 452.17 410.71 455.42 385.75 459.29 360.87
  Q 477.40 244.52 497.34 128.51
  Q 497.42 128.05 497.87 127.91
  C 511.80 123.68 527.32 122.54 540.26 130.41
  Q 540.70 130.68 540.98 130.24
  L 571.42 81.65
  Q 571.71 81.20 571.20 81.02
  Q 549.82 73.42 527.41 70.39
  C 483.53 64.48 455.99 90.45 435.93 126.18
  Q 380.66 224.61 325.32 323.00
  C 323.35 326.51 320.25 332.60 317.25 337.20
  A 0.61 0.61 0.0 0 1 316.13 336.93
  L 293.35 84.02
  Q 293.25 82.96 292.48 83.69
  L 263.90 110.84
  Q 263.53 111.19 263.02 111.18
  C 235.15 110.41 207.37 110.48 183.98 128.21
  C 177.48 133.14 172.22 139.09 165.46 145.02
  Q 134.92 171.81 119.55 209.32
  C 114.91 220.64 112.92 232.30 110.26 244.82
  C 102.59 280.91 114.70 315.30 131.48 345.70
  A 0.66 0.65 51.3 0 0 132.54 345.82
  L 189.72 281.17
  A 0.79 0.79 0.0 0 0 189.72 280.13
  C 177.23 265.60 153.96 241.51 158.01 220.46
  C 159.19 214.31 163.75 207.04 167.12 201.03
  C 169.03 197.61 171.78 195.14 174.41 192.26
  C 187.00 178.53 209.12 168.41 227.75 167.84
  C 233.35 167.66 235.37 173.16 234.48 177.50
  C 232.59 186.86 228.32 196.81 226.18 206.26
  C 215.28 254.36 204.60 298.27 191.11 345.41
  C 187.21 359.07 169.24 422.43 155.26 425.27
  Q 144.71 427.41 128.53 428.20
  C 120.77 428.57 111.97 427.43 103.56 427.28
  Q 103.01 427.27 102.73 427.74
  Q 73.82 477.65 44.63 527.41
  Q 43.27 529.73 42.58 530.60
  Q 40.59 533.06 43.75 533.20
  C 67.64 534.30 91.27 535.69 114.99 533.95
  C 139.39 532.16 164.22 521.19 179.45 501.69
  C 197.68 478.35 209.63 448.78 218.61 420.33
  C 234.16 371.07 245.40 319.43 259.29 269.03
  Q 259.43 268.54 259.53 269.04
  C 259.98 271.37 260.53 273.80 260.65 276.18
  Q 264.73 355.27 271.36 434.19
  Q 273.63 461.15 275.42 486.53
  Q 275.65 489.69 277.84 487.40
  C 288.74 475.97 299.94 465.31 310.52 453.78
  Q 313.03 451.05 314.70 447.73
  Q 363.65 350.45 412.30 253.02
  Q 412.70 252.22 412.63 253.11"
/>
<path stroke="#808080" vector-effect="non-scaling-stroke" d="
  M 215.31 182.69
  C 206.09 176.56 186.23 197.25 180.95 203.43
  C 168.14 218.41 167.54 231.81 179.13 247.60
  Q 187.97 259.65 198.14 271.31
  Q 198.87 272.15 199.13 271.07
  Q 199.65 268.89 200.21 266.04
  Q 208.09 226.24 216.33 186.52
  Q 216.90 183.74 215.31 182.69"
/>
<path stroke="#808080" vector-effect="non-scaling-stroke" d="
  M 196.26 261.90
  L 211.64 186.92
  Q 211.83 185.99 210.88 185.99
  C 209.97 185.99 207.96 186.41 207.09 186.93
  C 193.97 194.78 171.38 213.85 175.54 231.21
  Q 176.47 235.11 180.92 241.85
  Q 187.89 252.40 195.83 262.00
  A 0.25 0.24 31.7 0 0 196.26 261.90"
/>
</g>
<path fill="#000000" d="
  M 0.00 0.00
  L 600.00 0.00
  L 600.00 600.00
  L 0.00 600.00
  L 0.00 0.00
  Z
  M 381.37 352.00
  Q 370.88 412.41 361.80 473.26
  C 357.20 504.04 362.32 545.63 399.80 552.94
  C 411.05 555.13 425.89 554.32 437.77 551.59
  C 452.12 548.28 467.76 543.41 480.51 535.47
  Q 514.99 513.99 549.55 492.63
  C 553.10 490.44 553.31 486.60 554.53 483.04
  Q 566.90 447.15 578.68 411.07
  C 579.07 409.87 580.32 408.38 579.90 406.62
  Q 579.77 406.07 579.24 406.27
  L 466.98 449.74
  A 0.36 0.36 0.0 0 1 466.49 449.35
  Q 486.91 299.96 507.49 150.50
  C 510.09 131.56 536.67 143.91 545.53 149.36
  A 2.22 2.21 -59.6 0 0 548.62 148.55
  L 591.62 71.84
  A 0.89 0.89 0.0 0 0 591.20 70.59
  C 549.31 52.53 494.88 40.59 455.99 74.12
  Q 449.99 79.29 442.43 88.77
  Q 427.10 107.99 413.71 130.95
  C 383.61 182.59 358.54 229.62 332.42 279.90
  Q 330.35 283.88 329.92 279.42
  Q 322.57 203.48 314.73 125.23
  Q 310.84 86.49 306.64 49.45
  Q 306.36 46.94 304.52 48.68
  Q 280.20 71.70 256.64 93.88
  Q 255.31 95.14 253.25 95.10
  C 228.84 94.60 204.15 95.70 182.20 108.97
  C 126.97 142.37 82.58 216.05 93.49 281.81
  Q 95.13 291.71 95.99 297.79
  C 99.80 324.74 112.76 351.58 128.27 373.55
  Q 128.74 374.21 129.26 373.60
  Q 153.87 344.47 178.10 315.11
  Q 179.50 313.42 181.22 312.00
  Q 181.72 311.58 181.67 312.23
  Q 181.50 314.51 180.96 316.74
  C 173.49 347.45 165.76 380.64 149.69 408.17
  A 1.32 1.32 0.0 0 1 148.71 408.82
  Q 121.84 412.14 95.25 406.74
  Q 94.12 406.51 93.52 407.50
  L 9.88 545.16
  A 0.47 0.47 0.0 0 0 10.19 545.86
  Q 66.54 557.28 123.69 552.00
  Q 130.20 551.40 135.73 549.61
  C 162.50 540.97 185.25 525.63 201.28 502.29
  C 210.76 488.47 219.37 474.03 225.31 458.12
  Q 240.62 417.15 250.20 374.32
  A 0.36 0.36 0.0 0 1 250.84 374.19
  Q 251.06 374.49 251.09 375.01
  C 254.48 425.27 257.85 475.56 260.87 525.84
  Q 260.99 527.95 262.47 526.44
  Q 295.41 492.77 327.97 459.36
  C 331.81 455.42 333.93 450.29 336.24 445.40
  Q 354.78 406.22 373.49 367.12
  C 375.41 363.12 378.16 356.84 380.92 351.85
  A 0.24 0.24 0.0 0 1 381.37 352.00
  Z"
/>
<path fill="#ffffff" d="
  M 381.37 352.00
  A 0.24 0.24 0.0 0 0 380.92 351.85
  C 378.16 356.84 375.41 363.12 373.49 367.12
  Q 354.78 406.22 336.24 445.40
  C 333.93 450.29 331.81 455.42 327.97 459.36
  Q 295.41 492.77 262.47 526.44
  Q 260.99 527.95 260.87 525.84
  C 257.85 475.56 254.48 425.27 251.09 375.01
  Q 251.06 374.49 250.84 374.19
  A 0.36 0.36 0.0 0 0 250.20 374.32
  Q 240.62 417.15 225.31 458.12
  C 219.37 474.03 210.76 488.47 201.28 502.29
  C 185.25 525.63 162.50 540.97 135.73 549.61
  Q 130.20 551.40 123.69 552.00
  Q 66.54 557.28 10.19 545.86
  A 0.47 0.47 0.0 0 1 9.88 545.16
  L 93.52 407.50
  Q 94.12 406.51 95.25 406.74
  Q 121.84 412.14 148.71 408.82
  A 1.32 1.32 0.0 0 0 149.69 408.17
  C 165.76 380.64 173.49 347.45 180.96 316.74
  Q 181.50 314.51 181.67 312.23
  Q 181.72 311.58 181.22 312.00
  Q 179.50 313.42 178.10 315.11
  Q 153.87 344.47 129.26 373.60
  Q 128.74 374.21 128.27 373.55
  C 112.76 351.58 99.80 324.74 95.99 297.79
  Q 95.13 291.71 93.49 281.81
  C 82.58 216.05 126.97 142.37 182.20 108.97
  C 204.15 95.70 228.84 94.60 253.25 95.10
  Q 255.31 95.14 256.64 93.88
  Q 280.20 71.70 304.52 48.68
  Q 306.36 46.94 306.64 49.45
  Q 310.84 86.49 314.73 125.23
  Q 322.57 203.48 329.92 279.42
  Q 330.35 283.88 332.42 279.90
  C 358.54 229.62 383.61 182.59 413.71 130.95
  Q 427.10 107.99 442.43 88.77
  Q 449.99 79.29 455.99 74.12
  C 494.88 40.59 549.31 52.53 591.20 70.59
  A 0.89 0.89 0.0 0 1 591.62 71.84
  L 548.62 148.55
  A 2.22 2.21 -59.6 0 1 545.53 149.36
  C 536.67 143.91 510.09 131.56 507.49 150.50
  Q 486.91 299.96 466.49 449.35
  A 0.36 0.36 0.0 0 0 466.98 449.74
  L 579.24 406.27
  Q 579.77 406.07 579.90 406.62
  C 580.32 408.38 579.07 409.87 578.68 411.07
  Q 566.90 447.15 554.53 483.04
  C 553.31 486.60 553.10 490.44 549.55 492.63
  Q 514.99 513.99 480.51 535.47
  C 467.76 543.41 452.12 548.28 437.77 551.59
  C 425.89 554.32 411.05 555.13 399.80 552.94
  C 362.32 545.63 357.20 504.04 361.80 473.26
  Q 370.88 412.41 381.37 352.00
  Z
  M 250.44 355.46
  C 252.67 354.06 254.16 355.41 254.33 357.75
  Q 258.80 420.77 262.67 483.84
  C 263.14 491.53 263.69 505.12 264.53 515.49
  Q 264.74 518.02 266.49 516.18
  Q 295.71 485.54 324.77 456.34
  C 326.33 454.78 327.63 452.71 328.47 450.95
  Q 356.20 392.94 383.92 334.93
  Q 384.46 333.81 385.76 332.66
  Q 386.18 332.29 386.62 332.64
  L 388.75 334.35
  Q 389.20 334.71 389.07 335.26
  Q 387.26 343.03 386.76 346.00
  Q 379.16 391.09 366.33 472.06
  C 361.16 504.75 367.11 548.39 409.76 549.69
  C 429.33 550.28 447.34 545.34 465.61 538.21
  Q 471.18 536.03 477.01 532.42
  Q 511.25 511.23 545.39 489.86
  Q 546.60 489.10 547.91 488.11
  Q 548.33 487.80 548.49 487.30
  L 573.03 414.33
  A 0.54 0.54 0.0 0 0 572.32 413.65
  Q 519.33 434.33 466.98 454.46
  Q 464.23 455.52 461.23 455.93
  Q 460.64 456.01 460.78 455.43
  C 461.30 453.29 462.02 451.03 462.28 448.98
  Q 467.08 410.89 472.56 372.90
  C 479.73 323.12 485.96 273.19 493.09 223.40
  C 496.99 196.16 500.38 167.35 503.77 147.01
  C 505.76 135.09 518.25 135.37 527.20 136.93
  C 533.22 137.98 539.37 141.24 545.17 144.11
  Q 545.74 144.39 546.05 143.83
  L 585.04 74.52
  A 1.38 1.37 26.5 0 0 584.39 72.59
  C 545.61 55.87 494.78 46.89 459.38 77.00
  Q 453.81 81.75 445.83 91.68
  C 427.78 114.13 412.26 141.25 396.17 170.29
  Q 361.08 233.61 328.13 298.09
  Q 327.75 298.83 327.57 298.02
  C 326.61 293.76 326.53 288.60 326.18 285.11
  C 323.37 256.75 320.22 228.42 317.57 200.04
  C 315.03 172.85 311.92 145.72 309.33 118.54
  C 307.39 98.18 306.02 77.36 302.78 57.17
  A 0.54 0.53 60.3 0 0 301.84 56.91
  Q 299.22 60.09 296.05 63.06
  Q 277.05 80.91 258.13 98.87
  Q 257.74 99.24 257.20 99.27
  Q 254.12 99.41 247.00 99.29
  Q 234.12 99.08 217.63 101.31
  C 211.01 102.21 201.88 103.93 196.80 106.30
  C 151.49 127.47 118.09 172.59 102.82 219.12
  C 96.44 238.55 94.53 258.40 97.23 278.75
  C 97.67 282.10 98.95 285.31 99.29 288.48
  C 102.38 317.27 112.90 342.60 128.79 366.46
  A 0.42 0.42 0.0 0 0 129.47 366.49
  Q 148.79 343.08 168.50 319.82
  C 173.05 314.45 181.61 303.65 188.70 296.15
  Q 189.78 295.01 189.47 296.55
  C 182.94 328.42 175.61 358.99 163.97 389.45
  Q 159.93 400.00 152.37 412.42
  Q 152.11 412.86 151.60 412.94
  Q 147.91 413.50 144.18 413.62
  C 128.44 414.12 112.18 414.47 96.61 411.70
  Q 96.22 411.63 96.01 411.97
  L 17.23 541.74
  A 0.95 0.95 0.0 0 0 17.88 543.17
  Q 71.12 552.32 124.75 547.56
  C 131.10 547.00 135.02 545.28 142.67 542.40
  C 163.84 534.41 181.68 521.26 195.07 503.05
  C 205.79 488.49 215.21 472.76 221.53 455.60
  Q 239.35 407.18 249.84 356.33
  A 1.35 1.32 -11.0 0 1 250.44 355.46
  Z"
/>
<path fill="#000000" d="
  M 250.44 355.46
  A 1.35 1.32 -11.0 0 0 249.84 356.33
  Q 239.35 407.18 221.53 455.60
  C 215.21 472.76 205.79 488.49 195.07 503.05
  C 181.68 521.26 163.84 534.41 142.67 542.40
  C 135.02 545.28 131.10 547.00 124.75 547.56
  Q 71.12 552.32 17.88 543.17
  A 0.95 0.95 0.0 0 1 17.23 541.74
  L 96.01 411.97
  Q 96.22 411.63 96.61 411.70
  C 112.18 414.47 128.44 414.12 144.18 413.62
  Q 147.91 413.50 151.60 412.94
  Q 152.11 412.86 152.37 412.42
  Q 159.93 400.00 163.97 389.45
  C 175.61 358.99 182.94 328.42 189.47 296.55
  Q 189.78 295.01 188.70 296.15
  C 181.61 303.65 173.05 314.45 168.50 319.82
  Q 148.79 343.08 129.47 366.49
  A 0.42 0.42 0.0 0 1 128.79 366.46
  C 112.90 342.60 102.38 317.27 99.29 288.48
  C 98.95 285.31 97.67 282.10 97.23 278.75
  C 94.53 258.40 96.44 238.55 102.82 219.12
  C 118.09 172.59 151.49 127.47 196.80 106.30
  C 201.88 103.93 211.01 102.21 217.63 101.31
  Q 234.12 99.08 247.00 99.29
  Q 254.12 99.41 257.20 99.27
  Q 257.74 99.24 258.13 98.87
  Q 277.05 80.91 296.05 63.06
  Q 299.22 60.09 301.84 56.91
  A 0.54 0.53 60.3 0 1 302.78 57.17
  C 306.02 77.36 307.39 98.18 309.33 118.54
  C 311.92 145.72 315.03 172.85 317.57 200.04
  C 320.22 228.42 323.37 256.75 326.18 285.11
  C 326.53 288.60 326.61 293.76 327.57 298.02
  Q 327.75 298.83 328.13 298.09
  Q 361.08 233.61 396.17 170.29
  C 412.26 141.25 427.78 114.13 445.83 91.68
  Q 453.81 81.75 459.38 77.00
  C 494.78 46.89 545.61 55.87 584.39 72.59
  A 1.38 1.37 26.5 0 1 585.04 74.52
  L 546.05 143.83
  Q 545.74 144.39 545.17 144.11
  C 539.37 141.24 533.22 137.98 527.20 136.93
  C 518.25 135.37 505.76 135.09 503.77 147.01
  C 500.38 167.35 496.99 196.16 493.09 223.40
  C 485.96 273.19 479.73 323.12 472.56 372.90
  Q 467.08 410.89 462.28 448.98
  C 462.02 451.03 461.30 453.29 460.78 455.43
  Q 460.64 456.01 461.23 455.93
  Q 464.23 455.52 466.98 454.46
  Q 519.33 434.33 572.32 413.65
  A 0.54 0.54 0.0 0 1 573.03 414.33
  L 548.49 487.30
  Q 548.33 487.80 547.91 488.11
  Q 546.60 489.10 545.39 489.86
  Q 511.25 511.23 477.01 532.42
  Q 471.18 536.03 465.61 538.21
  C 447.34 545.34 429.33 550.28 409.76 549.69
  C 367.11 548.39 361.16 504.75 366.33 472.06
  Q 379.16 391.09 386.76 346.00
  Q 387.26 343.03 389.07 335.26
  Q 389.20 334.71 388.75 334.35
  L 386.62 332.64
  Q 386.18 332.29 385.76 332.66
  Q 384.46 333.81 383.92 334.93
  Q 356.20 392.94 328.47 450.95
  C 327.63 452.71 326.33 454.78 324.77 456.34
  Q 295.71 485.54 266.49 516.18
  Q 264.74 518.02 264.53 515.49
  C 263.69 505.12 263.14 491.53 262.67 483.84
  Q 258.80 420.77 254.33 357.75
  C 254.16 355.41 252.67 354.06 250.44 355.46
  Z
  M 412.63 253.11
  Q 412.23 257.95 410.74 268.25
  Q 396.27 368.09 381.72 467.92
  C 378.82 487.76 378.04 523.14 398.94 533.90
  C 433.79 551.86 506.11 500.90 534.91 481.22
  C 535.74 480.65 536.67 479.75 537.00 478.96
  C 542.49 465.81 546.86 452.29 552.07 439.04
  A 0.83 0.83 0.0 0 0 551.09 437.93
  Q 550.64 438.04 549.59 438.47
  Q 521.15 449.87 492.62 461.01
  C 482.78 464.86 457.04 474.83 448.68 465.60
  C 445.26 461.82 445.17 454.03 446.30 449.31
  Q 448.52 440.02 449.06 435.70
  C 452.17 410.71 455.42 385.75 459.29 360.87
  Q 477.40 244.52 497.34 128.51
  Q 497.42 128.05 497.87 127.91
  C 511.80 123.68 527.32 122.54 540.26 130.41
  Q 540.70 130.68 540.98 130.24
  L 571.42 81.65
  Q 571.71 81.20 571.20 81.02
  Q 549.82 73.42 527.41 70.39
  C 483.53 64.48 455.99 90.45 435.93 126.18
  Q 380.66 224.61 325.32 323.00
  C 323.35 326.51 320.25 332.60 317.25 337.20
  A 0.61 0.61 0.0 0 1 316.13 336.93
  L 293.35 84.02
  Q 293.25 82.96 292.48 83.69
  L 263.90 110.84
  Q 263.53 111.19 263.02 111.18
  C 235.15 110.41 207.37 110.48 183.98 128.21
  C 177.48 133.14 172.22 139.09 165.46 145.02
  Q 134.92 171.81 119.55 209.32
  C 114.91 220.64 112.92 232.30 110.26 244.82
  C 102.59 280.91 114.70 315.30 131.48 345.70
  A 0.66 0.65 51.3 0 0 132.54 345.82
  L 189.72 281.17
  A 0.79 0.79 0.0 0 0 189.72 280.13
  C 177.23 265.60 153.96 241.51 158.01 220.46
  C 159.19 214.31 163.75 207.04 167.12 201.03
  C 169.03 197.61 171.78 195.14 174.41 192.26
  C 187.00 178.53 209.12 168.41 227.75 167.84
  C 233.35 167.66 235.37 173.16 234.48 177.50
  C 232.59 186.86 228.32 196.81 226.18 206.26
  C 215.28 254.36 204.60 298.27 191.11 345.41
  C 187.21 359.07 169.24 422.43 155.26 425.27
  Q 144.71 427.41 128.53 428.20
  C 120.77 428.57 111.97 427.43 103.56 427.28
  Q 103.01 427.27 102.73 427.74
  Q 73.82 477.65 44.63 527.41
  Q 43.27 529.73 42.58 530.60
  Q 40.59 533.06 43.75 533.20
  C 67.64 534.30 91.27 535.69 114.99 533.95
  C 139.39 532.16 164.22 521.19 179.45 501.69
  C 197.68 478.35 209.63 448.78 218.61 420.33
  C 234.16 371.07 245.40 319.43 259.29 269.03
  Q 259.43 268.54 259.53 269.04
  C 259.98 271.37 260.53 273.80 260.65 276.18
  Q 264.73 355.27 271.36 434.19
  Q 273.63 461.15 275.42 486.53
  Q 275.65 489.69 277.84 487.40
  C 288.74 475.97 299.94 465.31 310.52 453.78
  Q 313.03 451.05 314.70 447.73
  Q 363.65 350.45 412.30 253.02
  Q 412.70 252.22 412.63 253.11
  Z
  M 215.31 182.69
  C 206.09 176.56 186.23 197.25 180.95 203.43
  C 168.14 218.41 167.54 231.81 179.13 247.60
  Q 187.97 259.65 198.14 271.31
  Q 198.87 272.15 199.13 271.07
  Q 199.65 268.89 200.21 266.04
  Q 208.09 226.24 216.33 186.52
  Q 216.90 183.74 215.31 182.69
  Z"
/>
<path fill="#ffffff" d="
  M 412.30 253.02
  Q 363.65 350.45 314.70 447.73
  Q 313.03 451.05 310.52 453.78
  C 299.94 465.31 288.74 475.97 277.84 487.40
  Q 275.65 489.69 275.42 486.53
  Q 273.63 461.15 271.36 434.19
  Q 264.73 355.27 260.65 276.18
  C 260.53 273.80 259.98 271.37 259.53 269.04
  Q 259.43 268.54 259.29 269.03
  C 245.40 319.43 234.16 371.07 218.61 420.33
  C 209.63 448.78 197.68 478.35 179.45 501.69
  C 164.22 521.19 139.39 532.16 114.99 533.95
  C 91.27 535.69 67.64 534.30 43.75 533.20
  Q 40.59 533.06 42.58 530.60
  Q 43.27 529.73 44.63 527.41
  Q 73.82 477.65 102.73 427.74
  Q 103.01 427.27 103.56 427.28
  C 111.97 427.43 120.77 428.57 128.53 428.20
  Q 144.71 427.41 155.26 425.27
  C 169.24 422.43 187.21 359.07 191.11 345.41
  C 204.60 298.27 215.28 254.36 226.18 206.26
  C 228.32 196.81 232.59 186.86 234.48 177.50
  C 235.37 173.16 233.35 167.66 227.75 167.84
  C 209.12 168.41 187.00 178.53 174.41 192.26
  C 171.78 195.14 169.03 197.61 167.12 201.03
  C 163.75 207.04 159.19 214.31 158.01 220.46
  C 153.96 241.51 177.23 265.60 189.72 280.13
  A 0.79 0.79 0.0 0 1 189.72 281.17
  L 132.54 345.82
  A 0.66 0.65 51.3 0 1 131.48 345.70
  C 114.70 315.30 102.59 280.91 110.26 244.82
  C 112.92 232.30 114.91 220.64 119.55 209.32
  Q 134.92 171.81 165.46 145.02
  C 172.22 139.09 177.48 133.14 183.98 128.21
  C 207.37 110.48 235.15 110.41 263.02 111.18
  Q 263.53 111.19 263.90 110.84
  L 292.48 83.69
  Q 293.25 82.96 293.35 84.02
  L 316.13 336.93
  A 0.61 0.61 0.0 0 0 317.25 337.20
  C 320.25 332.60 323.35 326.51 325.32 323.00
  Q 380.66 224.61 435.93 126.18
  C 455.99 90.45 483.53 64.48 527.41 70.39
  Q 549.82 73.42 571.20 81.02
  Q 571.71 81.20 571.42 81.65
  L 540.98 130.24
  Q 540.70 130.68 540.26 130.41
  C 527.32 122.54 511.80 123.68 497.87 127.91
  Q 497.42 128.05 497.34 128.51
  Q 477.40 244.52 459.29 360.87
  C 455.42 385.75 452.17 410.71 449.06 435.70
  Q 448.52 440.02 446.30 449.31
  C 445.17 454.03 445.26 461.82 448.68 465.60
  C 457.04 474.83 482.78 464.86 492.62 461.01
  Q 521.15 449.87 549.59 438.47
  Q 550.64 438.04 551.09 437.93
  A 0.83 0.83 0.0 0 1 552.07 439.04
  C 546.86 452.29 542.49 465.81 537.00 478.96
  C 536.67 479.75 535.74 480.65 534.91 481.22
  C 506.11 500.90 433.79 551.86 398.94 533.90
  C 378.04 523.14 378.82 487.76 381.72 467.92
  Q 396.27 368.09 410.74 268.25
  Q 412.23 257.95 412.63 253.11
  Q 412.70 252.22 412.30 253.02
  Z"
/>
<path fill="#ffffff" d="
  M 215.31 182.69
  Q 216.90 183.74 216.33 186.52
  Q 208.09 226.24 200.21 266.04
  Q 199.65 268.89 199.13 271.07
  Q 198.87 272.15 198.14 271.31
  Q 187.97 259.65 179.13 247.60
  C 167.54 231.81 168.14 218.41 180.95 203.43
  C 186.23 197.25 206.09 176.56 215.31 182.69
  Z
  M 196.26 261.90
  L 211.64 186.92
  Q 211.83 185.99 210.88 185.99
  C 209.97 185.99 207.96 186.41 207.09 186.93
  C 193.97 194.78 171.38 213.85 175.54 231.21
  Q 176.47 235.11 180.92 241.85
  Q 187.89 252.40 195.83 262.00
  A 0.25 0.24 31.7 0 0 196.26 261.90
  Z"
/>
<path fill="#000000" d="
  M 196.26 261.90
  A 0.25 0.24 31.7 0 1 195.83 262.00
  Q 187.89 252.40 180.92 241.85
  Q 176.47 235.11 175.54 231.21
  C 171.38 213.85 193.97 194.78 207.09 186.93
  C 207.96 186.41 209.97 185.99 210.88 185.99
  Q 211.83 185.99 211.64 186.92
  L 196.26 261.90
  Z"
/>
</svg>
