<?xml version="1.0" encoding="UTF-8" standalone="no"?>
<!DOCTYPE svg PUBLIC "-//W3C//DTD SVG 1.1//EN" "http://www.w3.org/Graphics/SVG/1.1/DTD/svg11.dtd">
<svg xmlns="http://www.w3.org/2000/svg" version="1.1" viewBox="0.00 0.00 600.00 600.00">
<g stroke-width="2.00" fill="none" stroke-linecap="butt">
<path stroke="#8699c1" vector-effect="non-scaling-stroke" d="
  M 320.21 122.04
  Q 320.98 124.82 320.99 127.75
  Q 320.99 143.47 321.02 159.19
  Q 321.03 162.19 323.90 165.09
  Q 324.22 165.42 324.68 165.46
  C 344.85 167.17 366.18 165.99 386.49 166.03
  Q 389.64 166.04 391.50 163.70
  Q 392.77 162.09 392.76 158.86
  Q 392.71 111.94 392.98 64.99
  Q 393.02 58.47 386.95 58.54
  C 367.91 58.76 348.83 58.03 329.82 58.96
  Q 329.30 58.98 328.91 59.34
  C 326.62 61.49 324.76 65.01 322.10 66.07
  C 317.56 67.88 316.05 64.41 312.70 62.82
  C 309.48 61.29 306.06 58.95 302.43 58.89
  C 262.13 58.26 222.99 59.29 180.25 58.71
  C 175.67 58.65 172.13 61.02 169.03 63.53
  Q 144.71 83.21 120.39 102.87
  Q 115.62 106.73 111.33 111.09
  Q 110.98 111.45 110.92 111.96
  Q 110.85 112.60 110.85 113.25
  Q 110.82 234.25 111.22 355.25
  C 111.23 358.33 115.53 362.19 117.44 363.56
  Q 141.55 380.98 165.43 398.71
  C 169.49 401.72 176.18 407.25 181.25 407.23
  Q 203.82 407.13 226.39 407.36
  C 230.01 407.40 230.88 408.93 230.92 412.25
  Q 231.59 465.47 231.22 487.25
  C 231.18 489.61 229.01 491.26 226.58 491.35
  Q 218.54 491.63 210.49 491.48
  C 206.74 491.42 204.49 494.95 204.48 498.46
  Q 204.45 517.20 204.79 535.94
  C 204.85 539.25 203.42 539.47 205.85 542.92
  C 208.27 546.37 209.11 545.60 212.67 545.55
  C 240.94 545.20 269.36 546.02 298.75 545.43
  Q 309.53 545.21 318.76 545.29
  Q 371.49 545.74 424.23 545.74
  C 428.48 545.74 432.36 544.85 435.46 542.46
  Q 457.51 525.50 489.13 498.79
  C 491.02 497.19 493.70 494.07 493.62 492.01
  Q 493.29 483.39 493.37 474.76
  C 493.99 402.19 493.71 328.50 493.77 257.05
  C 493.77 251.30 492.29 249.93 488.19 246.55
  Q 462.22 225.13 435.99 204.01
  C 433.38 201.92 431.15 201.76 428.00 201.76
  Q 319.03 201.74 210.06 201.76
  Q 207.61 201.76 205.63 203.96
  Q 205.30 204.32 205.24 204.80
  Q 204.74 208.64 204.75 210.25
  Q 204.76 230.08 204.75 249.94
  C 204.74 253.73 207.08 255.19 210.73 255.21
  Q 218.36 255.27 226.01 255.15
  Q 230.96 255.07 230.97 259.81
  Q 231.04 302.59 230.98 345.37
  C 230.97 349.77 228.62 350.00 225.00 350.05
  Q 204.78 350.33 184.57 350.17
  C 178.23 350.13 178.84 345.82 178.82 340.58
  Q 178.59 276.58 178.51 212.57
  C 178.48 189.12 179.49 165.66 179.73 142.21
  Q 179.82 133.01 180.52 123.82
  Q 180.55 123.34 180.90 123.00
  Q 183.22 120.72 185.25 120.72
  Q 264.58 120.76 315.94 121.09
  Q 317.38 121.10 319.52 121.43
  Q 320.07 121.51 320.21 122.04"
/>
<path stroke="#8699c1" vector-effect="non-scaling-stroke" d="
  M 323.23 298.44
  Q 325.55 297.18 328.50 297.18
  Q 356.79 297.18 385.05 297.30
  C 388.68 297.32 390.52 298.48 390.52 302.23
  Q 390.50 327.84 390.48 353.43
  C 390.47 358.56 387.19 360.45 383.62 363.09
  C 364.17 377.45 344.96 392.58 324.64 405.68
  C 320.81 408.15 312.95 407.38 308.48 407.29
  C 304.58 407.20 301.85 407.86 301.84 412.25
  Q 301.72 449.72 301.78 487.18
  C 301.78 490.44 304.70 491.75 307.75 491.75
  Q 361.63 491.76 415.50 491.70
  C 419.91 491.70 421.03 489.25 420.80 485.16
  Q 420.25 475.51 420.25 469.50
  Q 420.25 365.13 420.25 260.75
  C 420.25 256.55 417.14 255.58 413.39 255.62
  C 378.40 256.01 343.43 255.26 308.43 255.54
  Q 306.14 255.56 303.97 256.22
  Q 303.46 256.38 303.26 256.87
  Q 302.34 259.08 302.31 261.50
  Q 301.87 300.62 301.71 339.75
  C 301.70 342.39 301.13 350.13 305.32 350.43
  Q 308.55 350.67 318.24 350.51
  C 321.27 350.46 322.25 348.74 322.25 345.85
  Q 322.25 322.99 322.25 300.09
  A 1.90 1.88 -14.6 0 1 323.23 298.44"
/>
</g>
<path fill="#0c3282" d="
  M 0.00 0.00
  L 600.00 0.00
  L 600.00 600.00
  L 0.00 600.00
  L 0.00 0.00
  Z
  M 320.21 122.04
  Q 320.98 124.82 320.99 127.75
  Q 320.99 143.47 321.02 159.19
  Q 321.03 162.19 323.90 165.09
  Q 324.22 165.42 324.68 165.46
  C 344.85 167.17 366.18 165.99 386.49 166.03
  Q 389.64 166.04 391.50 163.70
  Q 392.77 162.09 392.76 158.86
  Q 392.71 111.94 392.98 64.99
  Q 393.02 58.47 386.95 58.54
  C 367.91 58.76 348.83 58.03 329.82 58.96
  Q 329.30 58.98 328.91 59.34
  C 326.62 61.49 324.76 65.01 322.10 66.07
  C 317.56 67.88 316.05 64.41 312.70 62.82
  C 309.48 61.29 306.06 58.95 302.43 58.89
  C 262.13 58.26 222.99 59.29 180.25 58.71
  C 175.67 58.65 172.13 61.02 169.03 63.53
  Q 144.71 83.21 120.39 102.87
  Q 115.62 106.73 111.33 111.09
  Q 110.98 111.45 110.92 111.96
  Q 110.85 112.60 110.85 113.25
  Q 110.82 234.25 111.22 355.25
  C 111.23 358.33 115.53 362.19 117.44 363.56
  Q 141.55 380.98 165.43 398.71
  C 169.49 401.72 176.18 407.25 181.25 407.23
  Q 203.82 407.13 226.39 407.36
  C 230.01 407.40 230.88 408.93 230.92 412.25
  Q 231.59 465.47 231.22 487.25
  C 231.18 489.61 229.01 491.26 226.58 491.35
  Q 218.54 491.63 210.49 491.48
  C 206.74 491.42 204.49 494.95 204.48 498.46
  Q 204.45 517.20 204.79 535.94
  C 204.85 539.25 203.42 539.47 205.85 542.92
  C 208.27 546.37 209.11 545.60 212.67 545.55
  C 240.94 545.20 269.36 546.02 298.75 545.43
  Q 309.53 545.21 318.76 545.29
  Q 371.49 545.74 424.23 545.74
  C 428.48 545.74 432.36 544.85 435.46 542.46
  Q 457.51 525.50 489.13 498.79
  C 491.02 497.19 493.70 494.07 493.62 492.01
  Q 493.29 483.39 493.37 474.76
  C 493.99 402.19 493.71 328.50 493.77 257.05
  C 493.77 251.30 492.29 249.93 488.19 246.55
  Q 462.22 225.13 435.99 204.01
  C 433.38 201.92 431.15 201.76 428.00 201.76
  Q 319.03 201.74 210.06 201.76
  Q 207.61 201.76 205.63 203.96
  Q 205.30 204.32 205.24 204.80
  Q 204.74 208.64 204.75 210.25
  Q 204.76 230.08 204.75 249.94
  C 204.74 253.73 207.08 255.19 210.73 255.21
  Q 218.36 255.27 226.01 255.15
  Q 230.96 255.07 230.97 259.81
  Q 231.04 302.59 230.98 345.37
  C 230.97 349.77 228.62 350.00 225.00 350.05
  Q 204.78 350.33 184.57 350.17
  C 178.23 350.13 178.84 345.82 178.82 340.58
  Q 178.59 276.58 178.51 212.57
  C 178.48 189.12 179.49 165.66 179.73 142.21
  Q 179.82 133.01 180.52 123.82
  Q 180.55 123.34 180.90 123.00
  Q 183.22 120.72 185.25 120.72
  Q 264.58 120.76 315.94 121.09
  Q 317.38 121.10 319.52 121.43
  Q 320.07 121.51 320.21 122.04
  Z"
/>
<path fill="#ffffff" d="
  M 319.52 121.43
  Q 317.38 121.10 315.94 121.09
  Q 264.58 120.76 185.25 120.72
  Q 183.22 120.72 180.90 123.00
  Q 180.55 123.34 180.52 123.82
  Q 179.82 133.01 179.73 142.21
  C 179.49 165.66 178.48 189.12 178.51 212.57
  Q 178.59 276.58 178.82 340.58
  C 178.84 345.82 178.23 350.13 184.57 350.17
  Q 204.78 350.33 225.00 350.05
  C 228.62 350.00 230.97 349.77 230.98 345.37
  Q 231.04 302.59 230.97 259.81
  Q 230.96 255.07 226.01 255.15
  Q 218.36 255.27 210.73 255.21
  C 207.08 255.19 204.74 253.73 204.75 249.94
  Q 204.76 230.08 204.75 210.25
  Q 204.74 208.64 205.24 204.80
  Q 205.30 204.32 205.63 203.96
  Q 207.61 201.76 210.06 201.76
  Q 319.03 201.74 428.00 201.76
  C 431.15 201.76 433.38 201.92 435.99 204.01
  Q 462.22 225.13 488.19 246.55
  C 492.29 249.93 493.77 251.30 493.77 257.05
  C 493.71 328.50 493.99 402.19 493.37 474.76
  Q 493.29 483.39 493.62 492.01
  C 493.70 494.07 491.02 497.19 489.13 498.79
  Q 457.51 525.50 435.46 542.46
  C 432.36 544.85 428.48 545.74 424.23 545.74
  Q 371.49 545.74 318.76 545.29
  Q 309.53 545.21 298.75 545.43
  C 269.36 546.02 240.94 545.20 212.67 545.55
  C 209.11 545.60 208.27 546.37 205.85 542.92
  C 203.42 539.47 204.85 539.25 204.79 535.94
  Q 204.45 517.20 204.48 498.46
  C 204.49 494.95 206.74 491.42 210.49 491.48
  Q 218.54 491.63 226.58 491.35
  C 229.01 491.26 231.18 489.61 231.22 487.25
  Q 231.59 465.47 230.92 412.25
  C 230.88 408.93 230.01 407.40 226.39 407.36
  Q 203.82 407.13 181.25 407.23
  C 176.18 407.25 169.49 401.72 165.43 398.71
  Q 141.55 380.98 117.44 363.56
  C 115.53 362.19 111.23 358.33 111.22 355.25
  Q 110.82 234.25 110.85 113.25
  Q 110.85 112.60 110.92 111.96
  Q 110.98 111.45 111.33 111.09
  Q 115.62 106.73 120.39 102.87
  Q 144.71 83.21 169.03 63.53
  C 172.13 61.02 175.67 58.65 180.25 58.71
  C 222.99 59.29 262.13 58.26 302.43 58.89
  C 306.06 58.95 309.48 61.29 312.70 62.82
  C 316.05 64.41 317.56 67.88 322.10 66.07
  C 324.76 65.01 326.62 61.49 328.91 59.34
  Q 329.30 58.98 329.82 58.96
  C 348.83 58.03 367.91 58.76 386.95 58.54
  Q 393.02 58.47 392.98 64.99
  Q 392.71 111.94 392.76 158.86
  Q 392.77 162.09 391.50 163.70
  Q 389.64 166.04 386.49 166.03
  C 366.18 165.99 344.85 167.17 324.68 165.46
  Q 324.22 165.42 323.90 165.09
  Q 321.03 162.19 321.02 159.19
  Q 320.99 143.47 320.99 127.75
  Q 320.98 124.82 320.21 122.04
  Q 320.07 121.51 319.52 121.43
  Z
  M 323.23 298.44
  Q 325.55 297.18 328.50 297.18
  Q 356.79 297.18 385.05 297.30
  C 388.68 297.32 390.52 298.48 390.52 302.23
  Q 390.50 327.84 390.48 353.43
  C 390.47 358.56 387.19 360.45 383.62 363.09
  C 364.17 377.45 344.96 392.58 324.64 405.68
  C 320.81 408.15 312.95 407.38 308.48 407.29
  C 304.58 407.20 301.85 407.86 301.84 412.25
  Q 301.72 449.72 301.78 487.18
  C 301.78 490.44 304.70 491.75 307.75 491.75
  Q 361.63 491.76 415.50 491.70
  C 419.91 491.70 421.03 489.25 420.80 485.16
  Q 420.25 475.51 420.25 469.50
  Q 420.25 365.13 420.25 260.75
  C 420.25 256.55 417.14 255.58 413.39 255.62
  C 378.40 256.01 343.43 255.26 308.43 255.54
  Q 306.14 255.56 303.97 256.22
  Q 303.46 256.38 303.26 256.87
  Q 302.34 259.08 302.31 261.50
  Q 301.87 300.62 301.71 339.75
  C 301.70 342.39 301.13 350.13 305.32 350.43
  Q 308.55 350.67 318.24 350.51
  C 321.27 350.46 322.25 348.74 322.25 345.85
  Q 322.25 322.99 322.25 300.09
  A 1.90 1.88 -14.6 0 1 323.23 298.44
  Z"
/>
<path fill="#0c3282" d="
  M 323.23 298.44
  A 1.90 1.88 -14.6 0 0 322.25 300.09
  Q 322.25 322.99 322.25 345.85
  C 322.25 348.74 321.27 350.46 318.24 350.51
  Q 308.55 350.67 305.32 350.43
  C 301.13 350.13 301.70 342.39 301.71 339.75
  Q 301.87 300.62 302.31 261.50
  Q 302.34 259.08 303.26 256.87
  Q 303.46 256.38 303.97 256.22
  Q 306.14 255.56 308.43 255.54
  C 343.43 255.26 378.40 256.01 413.39 255.62
  C 417.14 255.58 420.25 256.55 420.25 260.75
  Q 420.25 365.13 420.25 469.50
  Q 420.25 475.51 420.80 485.16
  C 421.03 489.25 419.91 491.70 415.50 491.70
  Q 361.63 491.76 307.75 491.75
  C 304.70 491.75 301.78 490.44 301.78 487.18
  Q 301.72 449.72 301.84 412.25
  C 301.85 407.86 304.58 407.20 308.48 407.29
  C 312.95 407.38 320.81 408.15 324.64 405.68
  C 344.96 392.58 364.17 377.45 383.62 363.09
  C 387.19 360.45 390.47 358.56 390.48 353.43
  Q 390.50 327.84 390.52 302.23
  C 390.52 298.48 388.68 297.32 385.05 297.30
  Q 356.79 297.18 328.50 297.18
  Q 325.55 297.18 323.23 298.44
  Z"
/>
</svg>
