<?xml version="1.0" encoding="UTF-8" standalone="no"?>
<svg height="164.577" viewBox="0 0 164.577 164.57699" width="164.577" xmlns="http://www.w3.org/2000/svg">
  <path d="m0 0h164.577v164.577h-164.577z" stroke-linejoin="round" stroke-width="43.8758"/>
  <g transform="translate(27.426015 29.788498)">
    <path d="m65.25 73.46c0-2.38 2.2-2.38 2.2-2.38h9.75s2.13 0 2.2 2.27v29.77c0 1.05.85 1.9 1.9 1.9h23.69c3.64 0 5.59-1.84 3.84-4.32l.01-.02c-1.19-1.68-12.54-17.36-12.54-32.63 0-17.5 10.42-30.15 11.48-33.27s-.79-3.18-1.84-3.18h-24.63c-1.05 0-1.9.85-1.9 1.89v19.44c-.07 1.92-1.63 2.19-2.08 2.23h-9.98c-.45-.04-2.1-.31-2.1-2.38l-20.56.02c0 2.05-1.62 2.33-2.08 2.38h-10.2c-.46-.04-2.09-.33-2.09-2.38v-19.3c0-1.05-.85-1.89-1.89-1.89h-24.64c-1.05 0-2.9.06-1.84 3.18s11.48 15.77 11.48 33.27c0 15.27-11.35 30.95-12.54 32.63-1.76 2.48.2 4.32 3.84 4.32h23.69c1.05 0 1.89-.85 1.89-1.9v-29.66c0-2.38 2.2-2.38 2.2-2.38h9.97s2.1 0 2.2 2.22z" fill="#ffe100"/>
    <path d="m65.25 26.94c0-2.38 2.21-2.38 2.21-2.38h39.09c3.92 0 3.92-3.79 1.56-5.91-2.47-2.21-17.69-15.66-17.69-15.66s-3.55-3.01-6.94-3.01c-7.28 0-10.87 9.7-28.26 9.7s-20.97-9.68-27.91-9.68c-3.72 0-7.28 3.01-7.28 3.01s-17.32 14.64-18.47 15.66c-2.37 2.12-2.37 5.91 2.37 5.91h38.56s2.2 0 2.2 2.38c-.0033 27.359631-.01 48.294556-.01 75.99 0 1.05.85 1.9 1.9 1.9h16.78c1.05 0 1.89-.85 1.89-1.9z" fill="#fff"/>
  </g>
</svg>
