<?xml version="1.0" encoding="UTF-8" standalone="no"?>
<!DOCTYPE svg PUBLIC "-//W3C//DTD SVG 1.1//EN" "http://www.w3.org/Graphics/SVG/1.1/DTD/svg11.dtd">
<svg xmlns="http://www.w3.org/2000/svg" version="1.1" viewBox="0.00 0.00 125.00 125.00">
<g stroke-width="2.00" fill="none" stroke-linecap="butt">
<path stroke="#7e1d37" vector-effect="non-scaling-stroke" d="
  M 110.21 63.50
  Q 109.67 63.00 108.94 63.00
  L 96.74 63.00
  Q 96.16 63.00 95.87 63.49
  C 94.64 65.51 93.86 67.08 92.09 68.62
  C 77.29 81.41 60.32 84.02 43.92 73.23
  C 33.19 66.17 35.54 56.54 45.31 50.49
  C 60.85 40.86 80.81 44.67 92.96 57.69
  C 93.94 58.74 94.49 60.20 95.15 61.51
  Q 95.39 61.99 95.92 61.99
  Q 101.62 62.02 107.34 61.99
  C 115.52 61.93 107.61 51.35 105.29 48.69
  C 85.70 26.21 51.68 22.69 29.58 43.35
  C 24.94 47.68 19.92 55.36 14.29 60.90
  A 2.00 1.99 46.3 0 0 14.23 63.68
  C 20.17 70.04 25.98 78.26 31.83 83.17
  C 54.70 102.35 88.41 97.79 106.64 74.61
  C 108.15 72.69 112.56 65.72 110.21 63.50"
/>
<path stroke="#8187a6" vector-effect="non-scaling-stroke" d="
  M 97.21 65.40
  C 84.27 84.27 57.11 88.73 39.60 73.42
  C 29.71 64.77 34.07 54.83 43.47 48.60
  C 60.78 37.12 85.54 41.72 97.01 59.56
  Q 97.30 60.00 97.82 60.00
  L 108.43 59.99
  A 0.77 0.76 -8.0 0 0 109.17 59.02
  C 107.28 52.41 99.29 45.18 94.03 41.37
  C 77.72 29.57 56.48 28.85 39.03 39.04
  C 29.08 44.86 23.42 54.76 16.37 62.15
  Q 16.03 62.51 16.37 62.86
  C 21.80 68.50 27.04 75.88 31.95 80.34
  C 55.16 101.41 95.73 95.43 109.05 65.83
  A 0.59 0.58 -77.7 0 0 108.52 65.00
  L 97.98 65.00
  Q 97.49 65.00 97.21 65.40"
/>
</g>
<path fill="#f92b20" d="
  M 0.00 0.00
  L 125.00 0.00
  L 125.00 125.00
  L 0.00 125.00
  L 0.00 0.00
  Z
  M 110.21 63.50
  Q 109.67 63.00 108.94 63.00
  L 96.74 63.00
  Q 96.16 63.00 95.87 63.49
  C 94.64 65.51 93.86 67.08 92.09 68.62
  C 77.29 81.41 60.32 84.02 43.92 73.23
  C 33.19 66.17 35.54 56.54 45.31 50.49
  C 60.85 40.86 80.81 44.67 92.96 57.69
  C 93.94 58.74 94.49 60.20 95.15 61.51
  Q 95.39 61.99 95.92 61.99
  Q 101.62 62.02 107.34 61.99
  C 115.52 61.93 107.61 51.35 105.29 48.69
  C 85.70 26.21 51.68 22.69 29.58 43.35
  C 24.94 47.68 19.92 55.36 14.29 60.90
  A 2.00 1.99 46.3 0 0 14.23 63.68
  C 20.17 70.04 25.98 78.26 31.83 83.17
  C 54.70 102.35 88.41 97.79 106.64 74.61
  C 108.15 72.69 112.56 65.72 110.21 63.50
  Z"
/>
<path fill="#020e4d" d="
  M 110.21 63.50
  C 112.56 65.72 108.15 72.69 106.64 74.61
  C 88.41 97.79 54.70 102.35 31.83 83.17
  C 25.98 78.26 20.17 70.04 14.23 63.68
  A 2.00 1.99 46.3 0 1 14.29 60.90
  C 19.92 55.36 24.94 47.68 29.58 43.35
  C 51.68 22.69 85.70 26.21 105.29 48.69
  C 107.61 51.35 115.52 61.93 107.34 61.99
  Q 101.62 62.02 95.92 61.99
  Q 95.39 61.99 95.15 61.51
  C 94.49 60.20 93.94 58.74 92.96 57.69
  C 80.81 44.67 60.85 40.86 45.31 50.49
  C 35.54 56.54 33.19 66.17 43.92 73.23
  C 60.32 84.02 77.29 81.41 92.09 68.62
  C 93.86 67.08 94.64 65.51 95.87 63.49
  Q 96.16 63.00 96.74 63.00
  L 108.94 63.00
  Q 109.67 63.00 110.21 63.50
  Z
  M 97.21 65.40
  C 84.27 84.27 57.11 88.73 39.60 73.42
  C 29.71 64.77 34.07 54.83 43.47 48.60
  C 60.78 37.12 85.54 41.72 97.01 59.56
  Q 97.30 60.00 97.82 60.00
  L 108.43 59.99
  A 0.77 0.76 -8.0 0 0 109.17 59.02
  C 107.28 52.41 99.29 45.18 94.03 41.37
  C 77.72 29.57 56.48 28.85 39.03 39.04
  C 29.08 44.86 23.42 54.76 16.37 62.15
  Q 16.03 62.51 16.37 62.86
  C 21.80 68.50 27.04 75.88 31.95 80.34
  C 55.16 101.41 95.73 95.43 109.05 65.83
  A 0.59 0.58 -77.7 0 0 108.52 65.00
  L 97.98 65.00
  Q 97.49 65.00 97.21 65.40
  Z"
/>
<path fill="#ffffff" d="
  M 39.60 73.42
  C 57.11 88.73 84.27 84.27 97.21 65.40
  Q 97.49 65.00 97.98 65.00
  L 108.52 65.00
  A 0.59 0.58 -77.7 0 1 109.05 65.83
  C 95.73 95.43 55.16 101.41 31.95 80.34
  C 27.04 75.88 21.80 68.50 16.37 62.86
  Q 16.03 62.51 16.37 62.15
  C 23.42 54.76 29.08 44.86 39.03 39.04
  C 56.48 28.85 77.72 29.57 94.03 41.37
  C 99.29 45.18 107.28 52.41 109.17 59.02
  A 0.77 0.76 -8.0 0 1 108.43 59.99
  L 97.82 60.00
  Q 97.30 60.00 97.01 59.56
  C 85.54 41.72 60.78 37.12 43.47 48.60
  C 34.07 54.83 29.71 64.77 39.60 73.42
  Z"
/>
</svg>
