<?xml version="1.0" encoding="UTF-8" standalone="no"?>
<!DOCTYPE svg PUBLIC "-//W3C//DTD SVG 1.1//EN" "http://www.w3.org/Graphics/SVG/1.1/DTD/svg11.dtd">
<svg xmlns="http://www.w3.org/2000/svg" version="1.1" viewBox="0 0 220 220">
<g stroke-width="2.00" fill="none" stroke-linecap="butt">
<path stroke="#60572a" vector-effect="non-scaling-stroke" d="
  M 80.09 150.86
  C 71.86 145.61 63.20 155.86 59.15 152.82
  Q 57.28 151.42 57.90 148.25
  Q 59.48 140.19 66.84 136.67
  Q 67.97 136.13 66.73 136.31
  C 54.87 137.97 47.45 141.79 46.33 154.77
  C 44.42 176.94 65.13 182.41 82.61 178.61
  C 86.48 177.77 90.10 177.84 93.25 179.51
  Q 103.14 184.75 117.07 194.65
  Q 117.60 195.02 117.76 194.39
  C 123.61 172.00 143.56 164.99 164.31 164.13
  A 0.42 0.42 0.0 0 0 164.50 163.35
  C 162.36 162.08 162.10 160.50 162.39 158.01
  C 163.37 149.73 162.30 146.75 169.60 141.30
  A 0.49 0.49 0.0 0 0 169.51 140.47
  C 163.25 137.51 163.78 132.19 163.07 126.42
  C 161.24 111.56 151.24 110.25 138.88 108.04
  Q 137.89 107.87 138.78 107.41
  C 147.72 102.76 153.50 97.44 155.52 87.62
  C 156.74 81.70 158.21 78.78 163.30 75.95
  Q 163.98 75.58 163.28 75.25
  C 158.69 73.07 157.32 70.44 156.06 65.25
  C 152.23 49.48 145.02 37.26 127.49 35.05
  C 117.03 33.73 108.03 37.31 99.03 42.88
  Q 98.59 43.14 98.14 42.90
  C 88.39 37.54 81.58 31.51 69.49 36.01
  C 58.07 40.25 54.29 54.67 65.21 62.26
  Q 65.62 62.54 65.48 62.06
  L 64.37 58.31
  Q 64.16 57.62 64.69 57.12
  Q 66.97 55.01 70.13 55.25
  Q 70.61 55.29 70.99 55.60
  C 76.23 59.93 79.21 60.37 85.65 58.03
  Q 86.31 57.79 86.05 58.44
  C 80.74 71.75 80.27 87.05 81.55 101.16
  Q 81.60 101.66 81.33 102.08
  C 78.29 106.87 73.66 107.42 68.87 108.89
  Q 67.49 109.31 68.92 109.48
  Q 76.51 110.37 81.68 115.85
  Q 82.04 116.22 82.01 116.74
  C 81.94 118.21 82.12 119.83 81.78 121.23
  Q 78.28 135.81 80.40 150.66
  Q 80.47 151.10 80.09 150.86"
/>
<path stroke="#60572a" vector-effect="non-scaling-stroke" d="
  M 133.29 75.14
  C 135.71 73.35 138.77 70.71 138.53 68.00
  C 137.72 58.70 130.85 47.49 120.58 46.53
  C 114.36 45.95 108.65 50.76 106.22 56.22
  Q 104.97 59.04 104.98 63.96
  Q 105.03 80.41 104.98 96.87
  C 104.96 103.74 107.94 106.83 115.07 106.49
  C 130.82 105.73 139.42 99.51 139.27 82.77
  Q 139.26 82.23 138.96 81.77
  Q 136.69 78.37 133.31 76.04
  Q 132.67 75.60 133.29 75.14"
/>
<path stroke="#60572a" vector-effect="non-scaling-stroke" d="
  M 134.37 140.51
  C 138.16 138.59 140.27 135.90 139.91 131.40
  C 138.75 116.87 127.00 110.64 113.65 111.00
  C 106.86 111.18 104.98 119.30 104.99 124.94
  Q 105.00 139.75 105.02 154.56
  C 105.03 165.11 117.39 171.36 126.74 167.70
  Q 139.28 162.80 140.09 150.01
  C 140.41 145.00 137.17 144.14 134.24 141.37
  Q 133.69 140.85 134.37 140.51"
/>
</g>
<path fill="#05051f" d="
  M 0.00 0.00
  L 220.00 0.00
  L 220.00 220.00
  L 0.00 220.00
  L 0.00 0.00
  Z
  M 80.09 150.86
  C 71.86 145.61 63.20 155.86 59.15 152.82
  Q 57.28 151.42 57.90 148.25
  Q 59.48 140.19 66.84 136.67
  Q 67.97 136.13 66.73 136.31
  C 54.87 137.97 47.45 141.79 46.33 154.77
  C 44.42 176.94 65.13 182.41 82.61 178.61
  C 86.48 177.77 90.10 177.84 93.25 179.51
  Q 103.14 184.75 117.07 194.65
  Q 117.60 195.02 117.76 194.39
  C 123.61 172.00 143.56 164.99 164.31 164.13
  A 0.42 0.42 0.0 0 0 164.50 163.35
  C 162.36 162.08 162.10 160.50 162.39 158.01
  C 163.37 149.73 162.30 146.75 169.60 141.30
  A 0.49 0.49 0.0 0 0 169.51 140.47
  C 163.25 137.51 163.78 132.19 163.07 126.42
  C 161.24 111.56 151.24 110.25 138.88 108.04
  Q 137.89 107.87 138.78 107.41
  C 147.72 102.76 153.50 97.44 155.52 87.62
  C 156.74 81.70 158.21 78.78 163.30 75.95
  Q 163.98 75.58 163.28 75.25
  C 158.69 73.07 157.32 70.44 156.06 65.25
  C 152.23 49.48 145.02 37.26 127.49 35.05
  C 117.03 33.73 108.03 37.31 99.03 42.88
  Q 98.59 43.14 98.14 42.90
  C 88.39 37.54 81.58 31.51 69.49 36.01
  C 58.07 40.25 54.29 54.67 65.21 62.26
  Q 65.62 62.54 65.48 62.06
  L 64.37 58.31
  Q 64.16 57.62 64.69 57.12
  Q 66.97 55.01 70.13 55.25
  Q 70.61 55.29 70.99 55.60
  C 76.23 59.93 79.21 60.37 85.65 58.03
  Q 86.31 57.79 86.05 58.44
  C 80.74 71.75 80.27 87.05 81.55 101.16
  Q 81.60 101.66 81.33 102.08
  C 78.29 106.87 73.66 107.42 68.87 108.89
  Q 67.49 109.31 68.92 109.48
  Q 76.51 110.37 81.68 115.85
  Q 82.04 116.22 82.01 116.74
  C 81.94 118.21 82.12 119.83 81.78 121.23
  Q 78.28 135.81 80.40 150.66
  Q 80.47 151.10 80.09 150.86
  Z"
/>
<path fill="#baa834" d="
  M 80.40 150.66
  Q 78.28 135.81 81.78 121.23
  C 82.12 119.83 81.94 118.21 82.01 116.74
  Q 82.04 116.22 81.68 115.85
  Q 76.51 110.37 68.92 109.48
  Q 67.49 109.31 68.87 108.89
  C 73.66 107.42 78.29 106.87 81.33 102.08
  Q 81.60 101.66 81.55 101.16
  C 80.27 87.05 80.74 71.75 86.05 58.44
  Q 86.31 57.79 85.65 58.03
  C 79.21 60.37 76.23 59.93 70.99 55.60
  Q 70.61 55.29 70.13 55.25
  Q 66.97 55.01 64.69 57.12
  Q 64.16 57.62 64.37 58.31
  L 65.48 62.06
  Q 65.62 62.54 65.21 62.26
  C 54.29 54.67 58.07 40.25 69.49 36.01
  C 81.58 31.51 88.39 37.54 98.14 42.90
  Q 98.59 43.14 99.03 42.88
  C 108.03 37.31 117.03 33.73 127.49 35.05
  C 145.02 37.26 152.23 49.48 156.06 65.25
  C 157.32 70.44 158.69 73.07 163.28 75.25
  Q 163.98 75.58 163.30 75.95
  C 158.21 78.78 156.74 81.70 155.52 87.62
  C 153.50 97.44 147.72 102.76 138.78 107.41
  Q 137.89 107.87 138.88 108.04
  C 151.24 110.25 161.24 111.56 163.07 126.42
  C 163.78 132.19 163.25 137.51 169.51 140.47
  A 0.49 0.49 0.0 0 1 169.60 141.30
  C 162.30 146.75 163.37 149.73 162.39 158.01
  C 162.10 160.50 162.36 162.08 164.50 163.35
  A 0.42 0.42 0.0 0 1 164.31 164.13
  C 143.56 164.99 123.61 172.00 117.76 194.39
  Q 117.60 195.02 117.07 194.65
  Q 103.14 184.75 93.25 179.51
  C 90.10 177.84 86.48 177.77 82.61 178.61
  C 65.13 182.41 44.42 176.94 46.33 154.77
  C 47.45 141.79 54.87 137.97 66.73 136.31
  Q 67.97 136.13 66.84 136.67
  Q 59.48 140.19 57.90 148.25
  Q 57.28 151.42 59.15 152.82
  C 63.20 155.86 71.86 145.61 80.09 150.86
  Q 80.47 151.10 80.40 150.66
  Z
  M 133.29 75.14
  C 135.71 73.35 138.77 70.71 138.53 68.00
  C 137.72 58.70 130.85 47.49 120.58 46.53
  C 114.36 45.95 108.65 50.76 106.22 56.22
  Q 104.97 59.04 104.98 63.96
  Q 105.03 80.41 104.98 96.87
  C 104.96 103.74 107.94 106.83 115.07 106.49
  C 130.82 105.73 139.42 99.51 139.27 82.77
  Q 139.26 82.23 138.96 81.77
  Q 136.69 78.37 133.31 76.04
  Q 132.67 75.60 133.29 75.14
  Z
  M 134.37 140.51
  C 138.16 138.59 140.27 135.90 139.91 131.40
  C 138.75 116.87 127.00 110.64 113.65 111.00
  C 106.86 111.18 104.98 119.30 104.99 124.94
  Q 105.00 139.75 105.02 154.56
  C 105.03 165.11 117.39 171.36 126.74 167.70
  Q 139.28 162.80 140.09 150.01
  C 140.41 145.00 137.17 144.14 134.24 141.37
  Q 133.69 140.85 134.37 140.51
  Z"
/>
<path fill="#05051f" d="
  M 133.31 76.04
  Q 136.69 78.37 138.96 81.77
  Q 139.26 82.23 139.27 82.77
  C 139.42 99.51 130.82 105.73 115.07 106.49
  C 107.94 106.83 104.96 103.74 104.98 96.87
  Q 105.03 80.41 104.98 63.96
  Q 104.97 59.04 106.22 56.22
  C 108.65 50.76 114.36 45.95 120.58 46.53
  C 130.85 47.49 137.72 58.70 138.53 68.00
  C 138.77 70.71 135.71 73.35 133.29 75.14
  Q 132.67 75.60 133.31 76.04
  Z"
/>
<path fill="#05051f" d="
  M 134.24 141.37
  C 137.17 144.14 140.41 145.00 140.09 150.01
  Q 139.28 162.80 126.74 167.70
  C 117.39 171.36 105.03 165.11 105.02 154.56
  Q 105.00 139.75 104.99 124.94
  C 104.98 119.30 106.86 111.18 113.65 111.00
  C 127.00 110.64 138.75 116.87 139.91 131.40
  C 140.27 135.90 138.16 138.59 134.37 140.51
  Q 133.69 140.85 134.24 141.37
  Z"
/>
</svg>
