<?xml version="1.0" encoding="UTF-8" standalone="no"?>
<!DOCTYPE svg PUBLIC "-//W3C//DTD SVG 1.1//EN" "http://www.w3.org/Graphics/SVG/1.1/DTD/svg11.dtd">
<svg xmlns="http://www.w3.org/2000/svg" version="1.1" viewBox="0.00 0.00 316.00 316.00">
<g stroke-width="2.00" fill="none" stroke-linecap="butt">
<path stroke="#808aa1" vector-effect="non-scaling-stroke" d="
  M 162.66 51.40
  L 162.44 51.21
  Q 162.27 51.07 162.09 51.18
  L 130.19 70.49
  Q 129.73 70.76 129.73 71.30
  L 129.60 157.95
  Q 129.59 158.50 129.05 158.50
  L 94.09 158.50
  Q 93.42 158.50 93.40 157.83
  L 91.20 76.75
  Q 91.18 76.15 90.68 75.81
  L 60.25 55.50
  A 0.27 0.27 0.0 0 0 59.83 55.74
  L 65.15 164.14
  Q 65.17 164.55 65.46 164.83
  L 82.00 181.38
  Q 82.38 181.75 82.91 181.70
  L 129.23 177.32
  Q 129.76 177.27 129.76 177.80
  L 129.71 215.00"
/>
<path stroke="#000c34" vector-effect="non-scaling-stroke" d="
  M 129.71 215.00
  C 128.60 214.42 128.02 214.94 128.01 216.09
  Q 127.95 221.99 128.06 227.92
  A 1.31 1.28 -16.2 0 1 127.41 229.07
  L 112.19 237.86
  Q 110.88 238.61 109.98 237.41
  C 98.86 222.65 87.69 207.94 76.57 193.18
  C 74.74 190.76 71.40 184.63 68.44 184.17"
/>
<path stroke="#808aa1" vector-effect="non-scaling-stroke" d="
  M 68.44 184.17
  L 28.07 197.64
  A 0.23 0.23 0.0 0 0 27.99 198.03
  L 53.25 220.71"
/>
<path stroke="#000c34" vector-effect="non-scaling-stroke" d="
  M 53.25 220.71
  L 52.70 221.16
  Q 52.28 221.51 52.70 221.87
  Q 55.83 224.58 58.83 227.44
  C 64.82 233.16 71.57 238.30 77.55 244.05
  C 78.20 244.67 81.64 248.86 82.29 246.75"
/>
<path stroke="#808aa1" vector-effect="non-scaling-stroke" d="
  M 82.29 246.75
  L 100.40 262.87
  Q 100.61 263.06 100.90 263.04
  L 101.46 263.00"
/>
<path stroke="#000c34" vector-effect="non-scaling-stroke" d="
  M 101.46 263.00
  Q 102.18 263.92 103.19 263.44
  Q 129.81 250.84 156.02 238.43
  A 2.66 2.65 46.9 0 1 158.44 238.51
  L 204.90 264.17
  Q 205.41 264.45 205.69 264.95
  C 206.53 266.44 208.12 266.32 209.47 265.41
  Q 250.52 237.48 268.76 225.27
  Q 270.15 224.34 270.21 223.00"
/>
<path stroke="#808aa1" vector-effect="non-scaling-stroke" d="
  M 270.21 223.00
  L 270.00 222.29"
/>
<path stroke="#000c34" vector-effect="non-scaling-stroke" d="
  M 270.00 222.29
  Q 270.55 221.61 269.57 220.20
  Q 226.05 157.33 182.57 94.44
  Q 181.64 93.09 180.71 93.50"
/>
<path stroke="#808aa1" vector-effect="non-scaling-stroke" d="
  M 180.71 93.50
  L 179.48 91.74
  Q 179.17 91.29 179.57 90.91
  L 188.88 82.29
  Q 189.31 81.89 189.81 82.18
  L 196.50 85.96"
/>
<path stroke="#000c34" vector-effect="non-scaling-stroke" d="
  M 196.50 85.96
  Q 196.09 86.07 195.96 86.33
  Q 195.70 86.81 196.18 87.08
  L 236.69 109.59
  A 1.85 1.84 41.4 0 0 238.67 109.47
  Q 254.83 97.92 270.95 86.45
  Q 271.69 85.93 272.75 84.00"
/>
<path stroke="#000c34" vector-effect="non-scaling-stroke" d="
  M 272.75 84.00
  L 273.09 82.72
  Q 273.27 82.03 272.55 82.02
  L 270.31 81.99
  Q 270.19 81.99 270.11 81.90
  Q 270.00 81.80 269.95 81.67
  Q 269.81 81.30 269.42 81.20
  Q 258.30 78.12 247.19 74.97
  C 246.01 74.64 245.80 74.07 244.33 73.84
  Q 242.24 73.51 242.10 73.47
  Q 218.28 66.55 194.45 59.56
  C 190.88 58.52 187.86 60.40 185.18 62.48
  C 183.78 63.57 182.21 64.06 180.95 64.97
  Q 173.05 70.66 164.44 75.49
  Q 163.94 75.78 163.91 75.20
  C 163.58 68.14 163.23 60.03 164.23 53.05
  Q 164.57 50.60 162.66 51.40"
/>
<path stroke="#808292" vector-effect="non-scaling-stroke" d="
  M 272.75 84.00
  C 272.35 83.02 199.06 62.26 191.60 60.09
  Q 191.10 59.94 190.66 60.22
  L 163.20 77.97
  A 0.42 0.42 0.0 0 1 162.55 77.62
  L 162.66 51.40"
/>
<path stroke="#808292" vector-effect="non-scaling-stroke" d="
  M 272.75 84.00
  L 238.31 108.39
  A 1.09 1.09 0.0 0 1 237.15 108.46
  L 196.50 85.96"
/>
<path stroke="#808292" vector-effect="non-scaling-stroke" d="
  M 180.71 93.50
  L 270.00 222.29"
/>
<path stroke="#808292" vector-effect="non-scaling-stroke" d="
  M 270.21 223.00
  L 208.77 264.36
  A 0.89 0.87 42.5 0 1 207.86 264.39
  L 157.83 236.73
  Q 157.41 236.50 156.97 236.71
  L 101.46 263.00"
/>
<path stroke="#808292" vector-effect="non-scaling-stroke" d="
  M 82.29 246.75
  L 53.25 220.71"
/>
<path stroke="#808292" vector-effect="non-scaling-stroke" d="
  M 68.44 184.17
  L 110.34 239.95
  A 0.33 0.33 0.0 0 0 110.78 240.03
  L 129.20 229.24
  Q 129.63 228.99 129.63 228.49
  L 129.71 215.00"
/>
<path stroke="#808aa1" vector-effect="non-scaling-stroke" d="
  M 162.61 140.28
  L 162.53 219.29
  A 0.60 0.60 0.0 0 0 162.85 219.82
  L 210.04 244.66
  Q 210.44 244.88 210.78 244.58
  L 233.87 224.57
  Q 234.25 224.23 233.95 223.83
  L 232.05 221.25"
/>
<path stroke="#808292" vector-effect="non-scaling-stroke" d="
  M 232.05 221.25
  L 163.09 125.68
  Q 162.63 125.04 162.62 125.83
  L 162.61 140.28"
/>
<path stroke="#000c34" vector-effect="non-scaling-stroke" d="
  M 232.05 221.25
  Q 231.35 222.32 230.55 221.21
  Q 203.64 184.02 176.78 146.78
  Q 176.06 145.78 172.35 141.02
  C 169.67 137.59 167.49 133.78 164.88 130.26
  Q 164.28 129.44 164.33 130.46
  Q 164.59 135.60 162.61 140.28"
/>
</g>
<path fill="#001443" d="
  M 0.00 0.00
  L 316.00 0.00
  L 316.00 316.00
  L 0.00 316.00
  L 0.00 0.00
  Z
  M 162.66 51.40
  L 162.44 51.21
  Q 162.27 51.07 162.09 51.18
  L 130.19 70.49
  Q 129.73 70.76 129.73 71.30
  L 129.60 157.95
  Q 129.59 158.50 129.05 158.50
  L 94.09 158.50
  Q 93.42 158.50 93.40 157.83
  L 91.20 76.75
  Q 91.18 76.15 90.68 75.81
  L 60.25 55.50
  A 0.27 0.27 0.0 0 0 59.83 55.74
  L 65.15 164.14
  Q 65.17 164.55 65.46 164.83
  L 82.00 181.38
  Q 82.38 181.75 82.91 181.70
  L 129.23 177.32
  Q 129.76 177.27 129.76 177.80
  L 129.71 215.00
  C 128.60 214.42 128.02 214.94 128.01 216.09
  Q 127.95 221.99 128.06 227.92
  A 1.31 1.28 -16.2 0 1 127.41 229.07
  L 112.19 237.86
  Q 110.88 238.61 109.98 237.41
  C 98.86 222.65 87.69 207.94 76.57 193.18
  C 74.74 190.76 71.40 184.63 68.44 184.17
  L 28.07 197.64
  A 0.23 0.23 0.0 0 0 27.99 198.03
  L 53.25 220.71
  L 52.70 221.16
  Q 52.28 221.51 52.70 221.87
  Q 55.83 224.58 58.83 227.44
  C 64.82 233.16 71.57 238.30 77.55 244.05
  C 78.20 244.67 81.64 248.86 82.29 246.75
  L 100.40 262.87
  Q 100.61 263.06 100.90 263.04
  L 101.46 263.00
  Q 102.18 263.92 103.19 263.44
  Q 129.81 250.84 156.02 238.43
  A 2.66 2.65 46.9 0 1 158.44 238.51
  L 204.90 264.17
  Q 205.41 264.45 205.69 264.95
  C 206.53 266.44 208.12 266.32 209.47 265.41
  Q 250.52 237.48 268.76 225.27
  Q 270.15 224.34 270.21 223.00
  L 270.00 222.29
  Q 270.55 221.61 269.57 220.20
  Q 226.05 157.33 182.57 94.44
  Q 181.64 93.09 180.71 93.50
  L 179.48 91.74
  Q 179.17 91.29 179.57 90.91
  L 188.88 82.29
  Q 189.31 81.89 189.81 82.18
  L 196.50 85.96
  Q 196.09 86.07 195.96 86.33
  Q 195.70 86.81 196.18 87.08
  L 236.69 109.59
  A 1.85 1.84 41.4 0 0 238.67 109.47
  Q 254.83 97.92 270.95 86.45
  Q 271.69 85.93 272.75 84.00
  L 273.09 82.72
  Q 273.27 82.03 272.55 82.02
  L 270.31 81.99
  Q 270.19 81.99 270.11 81.90
  Q 270.00 81.80 269.95 81.67
  Q 269.81 81.30 269.42 81.20
  Q 258.30 78.12 247.19 74.97
  C 246.01 74.64 245.80 74.07 244.33 73.84
  Q 242.24 73.51 242.10 73.47
  Q 218.28 66.55 194.45 59.56
  C 190.88 58.52 187.86 60.40 185.18 62.48
  C 183.78 63.57 182.21 64.06 180.95 64.97
  Q 173.05 70.66 164.44 75.49
  Q 163.94 75.78 163.91 75.20
  C 163.58 68.14 163.23 60.03 164.23 53.05
  Q 164.57 50.60 162.66 51.40
  Z"
/>
<path fill="#000424" d="
  M 272.75 84.00
  C 272.35 83.02 199.06 62.26 191.60 60.09
  Q 191.10 59.94 190.66 60.22
  L 163.20 77.97
  A 0.42 0.42 0.0 0 1 162.55 77.62
  L 162.66 51.40
  Q 164.57 50.60 164.23 53.05
  C 163.23 60.03 163.58 68.14 163.91 75.20
  Q 163.94 75.78 164.44 75.49
  Q 173.05 70.66 180.95 64.97
  C 182.21 64.06 183.78 63.57 185.18 62.48
  C 187.86 60.40 190.88 58.52 194.45 59.56
  Q 218.28 66.55 242.10 73.47
  Q 242.24 73.51 244.33 73.84
  C 245.80 74.07 246.01 74.64 247.19 74.97
  Q 258.30 78.12 269.42 81.20
  Q 269.81 81.30 269.95 81.67
  Q 270.00 81.80 270.11 81.90
  Q 270.19 81.99 270.31 81.99
  L 272.55 82.02
  Q 273.27 82.03 273.09 82.72
  L 272.75 84.00
  Z"
/>
<path fill="#ffffff" d="
  M 162.66 51.40
  L 162.55 77.62
  A 0.42 0.42 0.0 0 0 163.20 77.97
  L 190.66 60.22
  Q 191.10 59.94 191.60 60.09
  C 199.06 62.26 272.35 83.02 272.75 84.00
  L 238.31 108.39
  A 1.09 1.09 0.0 0 1 237.15 108.46
  L 196.50 85.96
  L 189.81 82.18
  Q 189.31 81.89 188.88 82.29
  L 179.57 90.91
  Q 179.17 91.29 179.48 91.74
  L 180.71 93.50
  L 270.00 222.29
  L 270.21 223.00
  L 208.77 264.36
  A 0.89 0.87 42.5 0 1 207.86 264.39
  L 157.83 236.73
  Q 157.41 236.50 156.97 236.71
  L 101.46 263.00
  L 100.90 263.04
  Q 100.61 263.06 100.40 262.87
  L 82.29 246.75
  L 53.25 220.71
  L 27.99 198.03
  A 0.23 0.23 0.0 0 1 28.07 197.64
  L 68.44 184.17
  L 110.34 239.95
  A 0.33 0.33 0.0 0 0 110.78 240.03
  L 129.20 229.24
  Q 129.63 228.99 129.63 228.49
  L 129.71 215.00
  L 129.76 177.80
  Q 129.76 177.27 129.23 177.32
  L 82.91 181.70
  Q 82.38 181.75 82.00 181.38
  L 65.46 164.83
  Q 65.17 164.55 65.15 164.14
  L 59.83 55.74
  A 0.27 0.27 0.0 0 1 60.25 55.50
  L 90.68 75.81
  Q 91.18 76.15 91.20 76.75
  L 93.40 157.83
  Q 93.42 158.50 94.09 158.50
  L 129.05 158.50
  Q 129.59 158.50 129.60 157.95
  L 129.73 71.30
  Q 129.73 70.76 130.19 70.49
  L 162.09 51.18
  Q 162.27 51.07 162.44 51.21
  L 162.66 51.40
  Z
  M 162.61 140.28
  L 162.53 219.29
  A 0.60 0.60 0.0 0 0 162.85 219.82
  L 210.04 244.66
  Q 210.44 244.88 210.78 244.58
  L 233.87 224.57
  Q 234.25 224.23 233.95 223.83
  L 232.05 221.25
  L 163.09 125.68
  Q 162.63 125.04 162.62 125.83
  L 162.61 140.28
  Z"
/>
<path fill="#000424" d="
  M 272.75 84.00
  Q 271.69 85.93 270.95 86.45
  Q 254.83 97.92 238.67 109.47
  A 1.85 1.84 41.4 0 1 236.69 109.59
  L 196.18 87.08
  Q 195.70 86.81 195.96 86.33
  Q 196.09 86.07 196.50 85.96
  L 237.15 108.46
  A 1.09 1.09 0.0 0 0 238.31 108.39
  L 272.75 84.00
  Z"
/>
<path fill="#000424" d="
  M 270.00 222.29
  L 180.71 93.50
  Q 181.64 93.09 182.57 94.44
  Q 226.05 157.33 269.57 220.20
  Q 270.55 221.61 270.00 222.29
  Z"
/>
<path fill="#000424" d="
  M 232.05 221.25
  Q 231.35 222.32 230.55 221.21
  Q 203.64 184.02 176.78 146.78
  Q 176.06 145.78 172.35 141.02
  C 169.67 137.59 167.49 133.78 164.88 130.26
  Q 164.28 129.44 164.33 130.46
  Q 164.59 135.60 162.61 140.28
  L 162.62 125.83
  Q 162.63 125.04 163.09 125.68
  L 232.05 221.25
  Z"
/>
<path fill="#001443" d="
  M 232.05 221.25
  L 233.95 223.83
  Q 234.25 224.23 233.87 224.57
  L 210.78 244.58
  Q 210.44 244.88 210.04 244.66
  L 162.85 219.82
  A 0.60 0.60 0.0 0 1 162.53 219.29
  L 162.61 140.28
  Q 164.59 135.60 164.33 130.46
  Q 164.28 129.44 164.88 130.26
  C 167.49 133.78 169.67 137.59 172.35 141.02
  Q 176.06 145.78 176.78 146.78
  Q 203.64 184.02 230.55 221.21
  Q 231.35 222.32 232.05 221.25
  Z"
/>
<path fill="#000424" d="
  M 68.44 184.17
  C 71.40 184.63 74.74 190.76 76.57 193.18
  C 87.69 207.94 98.86 222.65 109.98 237.41
  Q 110.88 238.61 112.19 237.86
  L 127.41 229.07
  A 1.31 1.28 -16.2 0 0 128.06 227.92
  Q 127.95 221.99 128.01 216.09
  C 128.02 214.94 128.60 214.42 129.71 215.00
  L 129.63 228.49
  Q 129.63 228.99 129.20 229.24
  L 110.78 240.03
  A 0.33 0.33 0.0 0 1 110.34 239.95
  L 68.44 184.17
  Z"
/>
<path fill="#000424" d="
  M 53.25 220.71
  L 82.29 246.75
  C 81.64 248.86 78.20 244.67 77.55 244.05
  C 71.57 238.30 64.82 233.16 58.83 227.44
  Q 55.83 224.58 52.70 221.87
  Q 52.28 221.51 52.70 221.16
  L 53.25 220.71
  Z"
/>
<path fill="#000424" d="
  M 270.21 223.00
  Q 270.15 224.34 268.76 225.27
  Q 250.52 237.48 209.47 265.41
  C 208.12 266.32 206.53 266.44 205.69 264.95
  Q 205.41 264.45 204.90 264.17
  L 158.44 238.51
  A 2.66 2.65 46.9 0 0 156.02 238.43
  Q 129.81 250.84 103.19 263.44
  Q 102.18 263.92 101.46 263.00
  L 156.97 236.71
  Q 157.41 236.50 157.83 236.73
  L 207.86 264.39
  A 0.89 0.87 42.5 0 0 208.77 264.36
  L 270.21 223.00
  Z"
/>
</svg>
